<svg width="605" height="419" viewBox="0 0 605 419" fill="none" xmlns="http://www.w3.org/2000/svg">
<rect width="605" height="419" fill="#1E1E1E"/>
<rect width="605" height="419" fill="white"/>
<path d="M252.5 343L345 57.5L439 343L195.5 167H495L252.5 343Z" stroke="black"/>
<path d="M240.947 360L344.72 40L450.175 360L177 162.732H513L240.947 360Z" stroke="black"/>
<path d="M263.863 328L344.781 78L427.012 328L214 173.884H476L263.863 328Z" stroke="black"/>
<path d="M271.915 317L344.803 92L418.873 317L227 178.296H463L271.915 317Z" stroke="black"/>
<path d="M279.776 301L344.326 110L409.922 301L240 183.256H449L279.776 301Z" stroke="black"/>
</svg>
